<svg width="49" height="17" data-depth="0.5" class="layer p6" xmlns="http://www.w3.org/2000/svg"><g fill="#FF4C60" fill-rule="evenodd"><path d="M.5 16.5c0-5.71709 2.3825-10.99895 6.25-13.8567 3.8675-2.85774 8.6325-2.85774 12.5 0C23.1175 5.50106 25.5 10.78292 25.5 16.5H23c0-4.57303-1.90625-8.79884-5-11.08535-3.09375-2.28652-6.90625-2.28652-10 0C4.90625 7.70116 3 11.92697 3 16.5H.5z"/><path d="M23.5 16.5c0-5.71709 2.3825-10.99895 6.25-13.8567 3.8675-2.85774 8.6325-2.85774 12.5 0C46.1175 5.50106 48.5 10.78292 48.5 16.5H46c0-4.57303-1.90625-8.79884-5-11.08535-3.09375-2.28652-6.90625-2.28652-10 0-3.09375 2.28651-5 6.51232-5 11.08535h-2.5z"/></g></svg>